<svg width="128" height="135" viewBox="0 0 128 135" fill="none" xmlns="http://www.w3.org/2000/svg">
<circle cx="48.8813" cy="85.2553" r="48.8813" fill="#E1E7EC"/>
<path d="M47.2611 114.247C51.1914 114.247 54.3776 111.061 54.3776 107.13C54.3776 103.2 51.1914 100.014 47.2611 100.014C43.3307 100.014 40.1445 103.2 40.1445 107.13C40.1445 111.061 43.3307 114.247 47.2611 114.247Z" fill="#1E64BF"/>
<path d="M104.12 114.247C108.051 114.247 111.237 111.061 111.237 107.13C111.237 103.2 108.051 100.014 104.12 100.014C100.19 100.014 97.0039 103.2 97.0039 107.13C97.0039 111.061 100.19 114.247 104.12 114.247Z" fill="#1E64BF"/>
<path fill-rule="evenodd" clip-rule="evenodd" d="M124.36 42.2529L121.671 56.3361L106.035 48.0379L124.36 42.2529ZM40.8223 68.6383L106.035 48.0383L121.67 56.3365L117.058 80.4639C116.9 81.2999 116.455 82.0543 115.799 82.5969C115.144 83.1395 114.32 83.4362 113.469 83.4358H46.6689C45.8186 83.4345 44.9953 83.1372 44.3403 82.5949C43.6853 82.0526 43.2396 81.2991 43.0798 80.4639L40.8223 68.6383Z" fill="url(#paint0_linear)"/>
<path d="M61.8726 24.625H36.8193C36.2811 24.6255 35.7496 24.745 35.263 24.9749C34.7764 25.2048 34.3466 25.5395 34.0045 25.955C33.6624 26.3704 33.4163 26.8564 33.284 27.378C33.1516 27.8997 33.1363 28.4442 33.239 28.9725L40.8229 68.6557L106.036 48.0557L61.8726 24.625Z" fill="url(#paint1_linear)"/>
<path d="M124.396 42.2532L126.936 28.9725C127.037 28.4437 127.02 27.899 126.887 27.3774C126.753 26.8558 126.506 26.37 126.164 25.9548C125.821 25.5395 125.391 25.2051 124.904 24.9752C124.417 24.7454 123.885 24.6258 123.347 24.625H61.873L106.036 48.0381L124.396 42.2532Z" fill="url(#paint2_linear)"/>
<path d="M36.0358 66.6796L25.8593 13.4688C25.7576 12.9708 25.4871 12.5233 25.0934 12.2019C24.6997 11.8805 24.207 11.705 23.6988 11.7051H11.8467L10.9648 16.1143H21.8381L31.5384 66.7149L32.4203 71.327L36.6443 69.9865L36.0358 66.6796Z" fill="#003F9A"/>
<path d="M36.6616 69.9512L32.4375 71.2915L36.2207 91.0891C36.3208 91.5878 36.5909 92.0363 36.985 92.358C37.379 92.6797 37.8725 92.8546 38.3812 92.8528H118.777L119.659 88.4435H40.2596L36.6616 69.9512Z" fill="#2871CC"/>
<path d="M115.123 17.4302C110.841 17.4303 106.709 19.0065 103.515 21.8582C100.321 24.71 98.2879 28.6376 97.8044 32.8921H97.5844C97.139 28.9735 95.3782 25.3217 92.5895 22.533C89.8008 19.7443 86.149 17.9835 82.2305 17.5382V17.3182C86.4849 16.8346 90.4126 14.802 93.2643 11.6079C96.116 8.41386 97.6922 4.28186 97.6924 0C97.6924 4.62277 99.5287 9.0562 102.798 12.325C106.066 15.5938 110.5 17.4302 115.123 17.4302Z" fill="#78C1FF"/>
<path d="M69 10.4787C66.9171 10.4788 64.9072 11.2455 63.3534 12.6327C61.7997 14.0199 60.811 15.9305 60.5758 18H60.4687C60.2521 16.0939 59.3956 14.3175 58.0391 12.9609C56.6825 11.6044 54.9061 10.7479 53 10.5313V10.4242C55.0695 10.189 56.9801 9.20027 58.3673 7.64655C59.7545 6.09283 60.5212 4.08287 60.5213 2C60.5213 4.24869 61.4146 6.40529 63.0046 7.99536C64.5947 9.58542 66.7513 10.4787 69 10.4787Z" fill="#78C1FF"/>
<defs>
<linearGradient id="paint0_linear" x1="74.007" y1="60.587" x2="83.6005" y2="90.2812" gradientUnits="userSpaceOnUse">
<stop stop-color="#2871CC"/>
<stop offset="1" stop-color="#003F9A"/>
</linearGradient>
<linearGradient id="paint1_linear" x1="69.6038" y1="24.625" x2="69.6038" y2="68.6557" gradientUnits="userSpaceOnUse">
<stop stop-color="#2871CC"/>
<stop offset="1" stop-color="#78C1FF"/>
</linearGradient>
<linearGradient id="paint2_linear" x1="127.001" y1="24.4965" x2="92.2811" y2="60.1296" gradientUnits="userSpaceOnUse">
<stop stop-color="#2871CC"/>
<stop offset="1" stop-color="#78C1FF"/>
</linearGradient>
</defs>
</svg>
